<svg version="1.1" xmlns="http://www.w3.org/2000/svg" xmlns:xlink="http://www.w3.org/1999/xlink" width="568.603515625" height="324"><defs/><g><text fill="#eeeeee" stroke="none" font-family="Arial" font-size="24px" font-style="normal" font-weight="normal" text-decoration="none" x="0" y="0"></text><text fill="#eeeeee" stroke="none" font-family="Arial" font-size="24px" font-style="normal" font-weight="normal" text-decoration="none" x="0" y="30"></text><text fill="#eeeeee" stroke="none" font-family="Arial" font-size="24px" font-style="normal" font-weight="normal" text-decoration="none" x="0" y="60"></text><text fill="#eeeeee" stroke="none" font-family="Arial" font-size="24px" font-style="normal" font-weight="normal" text-decoration="none" x="0" y="90"></text><text fill="#eeeeee" stroke="none" font-family="Arial" font-size="24px" font-style="normal" font-weight="normal" text-decoration="none" x="0" y="120"></text><text fill="#eeeeee" stroke="none" font-family="Arial" font-size="24px" font-style="normal" font-weight="normal" text-decoration="none" x="0" y="150"></text><text fill="#eeeeee" stroke="none" font-family="Arial" font-size="24px" font-style="normal" font-weight="normal" text-decoration="none" x="0" y="180"></text><text fill="#eeeeee" stroke="none" font-family="Arial" font-size="24px" font-style="normal" font-weight="normal" text-decoration="none" x="0" y="210"></text><text fill="#eeeeee" stroke="none" font-family="Arial" font-size="24px" font-style="normal" font-weight="normal" text-decoration="none" x="0" y="240"></text><text fill="#eeeeee" stroke="none" font-family="Arial" font-size="24px" font-style="normal" font-weight="normal" text-decoration="none" x="0" y="270"></text><text fill="#eeeeee" stroke="none" font-family="Arial" font-size="24px" font-style="normal" font-weight="normal" text-decoration="none" x="0" y="300"></text><text fill="#eeeeee" stroke="none" font-family="Arial" font-size="24px" font-style="normal" font-weight="normal" text-decoration="none" x="200" y="0"></text><text fill="#eeeeee" stroke="none" font-family="Arial" font-size="24px" font-style="normal" font-weight="normal" text-decoration="none" x="200" y="30"></text><text fill="#eeeeee" stroke="none" font-family="Arial" font-size="24px" font-style="normal" font-weight="normal" text-decoration="none" x="200" y="60"></text><text fill="#eeeeee" stroke="none" font-family="Arial" font-size="24px" font-style="normal" font-weight="normal" text-decoration="none" x="200" y="90"></text><text fill="#eeeeee" stroke="none" font-family="Arial" font-size="24px" font-style="normal" font-weight="normal" text-decoration="none" x="200" y="120"></text><text fill="#eeeeee" stroke="none" font-family="Arial" font-size="24px" font-style="normal" font-weight="normal" text-decoration="none" x="200" y="150"></text><text fill="#eeeeee" stroke="none" font-family="Arial" font-size="24px" font-style="normal" font-weight="normal" text-decoration="none" x="200" y="180"></text><text fill="#eeeeee" stroke="none" font-family="Arial" font-size="24px" font-style="normal" font-weight="normal" text-decoration="none" x="200" y="210"></text><text fill="#eeeeee" stroke="none" font-family="Arial" font-size="24px" font-style="normal" font-weight="normal" text-decoration="none" x="200" y="240"></text><text fill="#eeeeee" stroke="none" font-family="Arial" font-size="24px" font-style="normal" font-weight="normal" text-decoration="none" x="200" y="270"></text><text fill="#eeeeee" stroke="none" font-family="Arial" font-size="24px" font-style="normal" font-weight="normal" text-decoration="none" x="200" y="300"></text><text fill="#eeeeee" stroke="none" font-family="Arial" font-size="24px" font-style="normal" font-weight="normal" text-decoration="none" x="400" y="0"></text><text fill="#eeeeee" stroke="none" font-family="Arial" font-size="24px" font-style="normal" font-weight="normal" text-decoration="none" x="400" y="30"></text><text fill="#eeeeee" stroke="none" font-family="Arial" font-size="24px" font-style="normal" font-weight="normal" text-decoration="none" x="400" y="60"></text><text fill="#eeeeee" stroke="none" font-family="Arial" font-size="24px" font-style="normal" font-weight="normal" text-decoration="none" x="400" y="90"></text><text fill="#eeeeee" stroke="none" font-family="Arial" font-size="24px" font-style="normal" font-weight="normal" text-decoration="none" x="400" y="120"></text><text fill="#eeeeee" stroke="none" font-family="Arial" font-size="24px" font-style="normal" font-weight="normal" text-decoration="none" x="400" y="150"></text><text fill="#eeeeee" stroke="none" font-family="Arial" font-size="24px" font-style="normal" font-weight="normal" text-decoration="none" x="400" y="180"></text><text fill="#eeeeee" stroke="none" font-family="Arial" font-size="24px" font-style="normal" font-weight="normal" text-decoration="none" x="400" y="210"></text><text fill="#eeeeee" stroke="none" font-family="Arial" font-size="24px" font-style="normal" font-weight="normal" text-decoration="none" x="400" y="240"></text><text fill="#eeeeee" stroke="none" font-family="Arial" font-size="24px" font-style="normal" font-weight="normal" text-decoration="none" x="400" y="270"></text><text fill="#eeeeee" stroke="none" font-family="Arial" font-size="24px" font-style="normal" font-weight="normal" text-decoration="none" x="400" y="300"></text><g transform="translate(-190,-302) scale(1,1)"><rect fill="#C0C0C0" stroke="none" x="444" y="356" width="127.17431640625" height="87" opacity="0.2"/></g><g transform="translate(-190,-302) scale(1,1)"><rect fill="#ffffff" stroke="none" x="437" y="349" width="127.17431640625" height="87"/></g><g transform="translate(-190,-302) scale(1,1)"><path fill="none" stroke="#000000" d="M 437 349 L 564.17431640625 349 L 564.17431640625 436 L 437 436 L 437 349 Z Z" stroke-miterlimit="10"/></g><g transform="translate(-190,-302) scale(1,1)"><path fill="none" stroke="#000000" d="M 437 374 L 564.17431640625 374" stroke-miterlimit="10"/></g><g transform="translate(-190,-302) scale(1,1)"><path fill="none" stroke="#000000" d="M 437 427 L 564.17431640625 427" stroke-miterlimit="10"/></g><g transform="translate(-190,-302) scale(1,1)"><g><path fill="none" stroke="none"/><text fill="#000000" stroke="none" font-family="Arial" font-size="13px" font-style="normal" font-weight="bold" text-decoration="none" x="479.6494140625" y="366.5">Option</text></g></g><g transform="translate(-190,-302) scale(1,1)"><g><path fill="none" stroke="none"/><text fill="#000000" stroke="none" font-family="Arial" font-size="13px" font-style="normal" font-weight="normal" text-decoration="none" x="442" y="389.5">+id_option: int</text></g></g><g transform="translate(-190,-302) scale(1,1)"><g><path fill="none" stroke="none"/><text fill="#000000" stroke="none" font-family="Arial" font-size="13px" font-style="normal" font-weight="normal" text-decoration="none" x="442" y="404.5">+titre: text</text></g></g><g transform="translate(-190,-302) scale(1,1)"><g><path fill="none" stroke="none"/><text fill="#000000" stroke="none" font-family="Arial" font-size="13px" font-style="normal" font-weight="normal" text-decoration="none" x="442" y="419.5">+est_un_menu: bool</text></g></g><g transform="translate(-190,-302) scale(1,1)"><rect fill="#C0C0C0" stroke="none" x="631" y="319" width="124.603515625" height="87" opacity="0.2"/></g><g transform="translate(-190,-302) scale(1,1)"><rect fill="#ffffff" stroke="none" x="624" y="312" width="124.603515625" height="87"/></g><g transform="translate(-190,-302) scale(1,1)"><path fill="none" stroke="#000000" d="M 624 312 L 748.603515625 312 L 748.603515625 399 L 624 399 L 624 312 Z Z" stroke-miterlimit="10"/></g><g transform="translate(-190,-302) scale(1,1)"><path fill="none" stroke="#000000" d="M 624 337 L 748.603515625 337" stroke-miterlimit="10"/></g><g transform="translate(-190,-302) scale(1,1)"><path fill="none" stroke="#000000" d="M 624 390 L 748.603515625 390" stroke-miterlimit="10"/></g><g transform="translate(-190,-302) scale(1,1)"><g><path fill="none" stroke="none"/><text fill="#000000" stroke="none" font-family="Arial" font-size="13px" font-style="normal" font-weight="bold" text-decoration="none" x="639.008544921875" y="329.5">ContientOption</text></g></g><g transform="translate(-190,-302) scale(1,1)"><g><path fill="none" stroke="none"/><text fill="#000000" stroke="none" font-family="Arial" font-size="13px" font-style="normal" font-weight="normal" text-decoration="none" x="629" y="352.5">+position: int</text></g></g><g transform="translate(-190,-302) scale(1,1)"><g><path fill="none" stroke="none"/><text fill="#000000" stroke="none" font-family="Arial" font-size="13px" font-style="normal" font-weight="normal" text-decoration="none" x="629" y="367.5">+id_parent: int</text></g></g><g transform="translate(-190,-302) scale(1,1)"><g><path fill="none" stroke="none"/><text fill="#000000" stroke="none" font-family="Arial" font-size="13px" font-style="normal" font-weight="normal" text-decoration="none" x="629" y="382.5">+id_option: int</text></g></g><g transform="translate(-190,-302) scale(1,1)"><path fill="none" stroke="#000000" d="M 500 349 L 500 328 L 593 328 L 593 392 L 564 392" stroke-miterlimit="10"/></g><g transform="translate(-190,-302) scale(1,1)"><g><path fill="none" stroke="none"/><text fill="#000000" stroke="none" font-family="Arial" font-size="13px" font-style="normal" font-weight="normal" text-decoration="none" x="502.5" y="347.5">*</text></g></g><g transform="translate(-190,-302) scale(1,1)"><g><path fill="none" stroke="none"/><text fill="#000000" stroke="none" font-family="Arial" font-size="13px" font-style="normal" font-weight="normal" text-decoration="none" x="569.5" y="403.5">*</text></g></g><g transform="translate(-190,-302) scale(1,1)"><path fill="none" stroke="#000000" d="M 623 360 L 594 360" stroke-miterlimit="10" stroke-dasharray="3"/></g><g transform="translate(-190,-302) scale(1,1)"><rect fill="#C0C0C0" stroke="none" x="439" y="519" width="144.50341796875" height="102" opacity="0.2"/></g><g transform="translate(-190,-302) scale(1,1)"><rect fill="#ffffff" stroke="none" x="432" y="512" width="144.50341796875" height="102"/></g><g transform="translate(-190,-302) scale(1,1)"><path fill="none" stroke="#000000" d="M 432 512 L 576.50341796875 512 L 576.50341796875 614 L 432 614 L 432 512 Z Z" stroke-miterlimit="10"/></g><g transform="translate(-190,-302) scale(1,1)"><path fill="none" stroke="#000000" d="M 432 537 L 576.50341796875 537" stroke-miterlimit="10"/></g><g transform="translate(-190,-302) scale(1,1)"><path fill="none" stroke="#000000" d="M 432 605 L 576.50341796875 605" stroke-miterlimit="10"/></g><g transform="translate(-190,-302) scale(1,1)"><g><path fill="none" stroke="none"/><text fill="#000000" stroke="none" font-family="Arial" font-size="13px" font-style="normal" font-weight="bold" text-decoration="none" x="474.27490234375" y="529.5">Protocole</text></g></g><g transform="translate(-190,-302) scale(1,1)"><g><path fill="none" stroke="none"/><text fill="#000000" stroke="none" font-family="Arial" font-size="13px" font-style="normal" font-weight="normal" text-decoration="none" x="437" y="552.5">+reference: varchar</text></g></g><g transform="translate(-190,-302) scale(1,1)"><g><path fill="none" stroke="none"/><text fill="#000000" stroke="none" font-family="Arial" font-size="13px" font-style="normal" font-weight="normal" text-decoration="none" x="437" y="567.5">+description: text</text></g></g><g transform="translate(-190,-302) scale(1,1)"><g><path fill="none" stroke="none"/><text fill="#000000" stroke="none" font-family="Arial" font-size="13px" font-style="normal" font-weight="normal" text-decoration="none" x="437" y="582.5">+id_option_correcte: int</text></g></g><g transform="translate(-190,-302) scale(1,1)"><g><path fill="none" stroke="none"/><text fill="#000000" stroke="none" font-family="Arial" font-size="13px" font-style="normal" font-weight="normal" text-decoration="none" x="437" y="597.5">+id_option_racine: int</text></g></g><g transform="translate(-190,-302) scale(1,1)"><path fill="none" stroke="#000000" d="M 552 512 L 552 436" stroke-miterlimit="10"/></g><g transform="translate(-190,-302) scale(1,1)"><path fill="none" stroke="#000000" d="M 556.209517756016 446.16267485762415 L 552 436 L 547.790482243984 446.16267485762415" stroke-miterlimit="10"/></g><g transform="translate(-190,-302) scale(1,1)"><path fill="none" stroke="#000000" d="M 448 512 L 448 436" stroke-miterlimit="10"/></g><g transform="translate(-190,-302) scale(1,1)"><path fill="none" stroke="#000000" d="M 452.209517756016 446.16267485762415 L 448 436 L 443.790482243984 446.16267485762415" stroke-miterlimit="10"/></g><g transform="translate(-190,-302) scale(1,1)"><rect fill="#C0C0C0" stroke="none" x="223" y="551" width="88.853515625" height="72" opacity="0.2"/></g><g transform="translate(-190,-302) scale(1,1)"><rect fill="#ffffff" stroke="none" x="216" y="544" width="88.853515625" height="72"/></g><g transform="translate(-190,-302) scale(1,1)"><path fill="none" stroke="#000000" d="M 216 544 L 304.853515625 544 L 304.853515625 616 L 216 616 L 216 544 Z Z" stroke-miterlimit="10"/></g><g transform="translate(-190,-302) scale(1,1)"><path fill="none" stroke="#000000" d="M 216 569 L 304.853515625 569" stroke-miterlimit="10"/></g><g transform="translate(-190,-302) scale(1,1)"><path fill="none" stroke="#000000" d="M 216 607 L 304.853515625 607" stroke-miterlimit="10"/></g><g transform="translate(-190,-302) scale(1,1)"><g><path fill="none" stroke="none"/><text fill="#000000" stroke="none" font-family="Arial" font-size="13px" font-style="normal" font-weight="bold" text-decoration="none" x="247.544189453125" y="561.5">Test</text></g></g><g transform="translate(-190,-302) scale(1,1)"><g><path fill="none" stroke="none"/><text fill="#000000" stroke="none" font-family="Arial" font-size="13px" font-style="normal" font-weight="normal" text-decoration="none" x="221" y="584.5">+id_test: int</text></g></g><g transform="translate(-190,-302) scale(1,1)"><g><path fill="none" stroke="none"/><text fill="#000000" stroke="none" font-family="Arial" font-size="13px" font-style="normal" font-weight="normal" text-decoration="none" x="221" y="599.5">+succes: bool</text></g></g><g transform="translate(-190,-302) scale(1,1)"><path fill="none" stroke="#000000" d="M 305 568 L 432 568" stroke-miterlimit="10"/></g><g transform="translate(-190,-302) scale(1,1)"><g><path fill="none" stroke="none"/><text fill="#000000" stroke="none" font-family="Arial" font-size="13px" font-style="normal" font-weight="normal" text-decoration="none" x="323.5" y="584.5">*</text></g></g><g transform="translate(-190,-302) scale(1,1)"><g><path fill="none" stroke="none"/><text fill="#000000" stroke="none" font-family="Arial" font-size="13px" font-style="normal" font-weight="normal" text-decoration="none" x="359.5" y="556.5">+reference</text></g></g><g transform="translate(-190,-302) scale(1,1)"><g><path fill="none" stroke="none"/><text fill="#000000" stroke="none" font-family="Arial" font-size="13px" font-style="normal" font-weight="normal" text-decoration="none" x="406.5" y="584.5">1</text></g></g><g transform="translate(-190,-302) scale(1,1)"><rect fill="#C0C0C0" stroke="none" x="207" y="367" width="113.025390625" height="72" opacity="0.2"/></g><g transform="translate(-190,-302) scale(1,1)"><rect fill="#ffffff" stroke="none" x="200" y="360" width="113.025390625" height="72"/></g><g transform="translate(-190,-302) scale(1,1)"><path fill="none" stroke="#000000" d="M 200 360 L 313.025390625 360 L 313.025390625 432 L 200 432 L 200 360 Z Z" stroke-miterlimit="10"/></g><g transform="translate(-190,-302) scale(1,1)"><path fill="none" stroke="#000000" d="M 200 385 L 313.025390625 385" stroke-miterlimit="10"/></g><g transform="translate(-190,-302) scale(1,1)"><path fill="none" stroke="#000000" d="M 200 423 L 313.025390625 423" stroke-miterlimit="10"/></g><g transform="translate(-190,-302) scale(1,1)"><g><path fill="none" stroke="none"/><text fill="#000000" stroke="none" font-family="Arial" font-size="13px" font-style="normal" font-weight="bold" text-decoration="none" x="204.5" y="377.5">CliqueEnregistre</text></g></g><g transform="translate(-190,-302) scale(1,1)"><g><path fill="none" stroke="none"/><text fill="#000000" stroke="none" font-family="Arial" font-size="13px" font-style="normal" font-weight="normal" text-decoration="none" x="205" y="400.5">+id_clic: int</text></g></g><g transform="translate(-190,-302) scale(1,1)"><g><path fill="none" stroke="none"/><text fill="#000000" stroke="none" font-family="Arial" font-size="13px" font-style="normal" font-weight="normal" text-decoration="none" x="205" y="415.5">+position: int</text></g></g><g transform="translate(-190,-302) scale(1,1)"><path fill="none" stroke="#000000" d="M 313 384 L 437 384" stroke-miterlimit="10"/></g><g transform="translate(-190,-302) scale(1,1)"><g><path fill="none" stroke="none"/><text fill="#000000" stroke="none" font-family="Arial" font-size="13px" font-style="normal" font-weight="normal" text-decoration="none" x="330.5" y="400.5">1</text></g></g><g transform="translate(-190,-302) scale(1,1)"><g><path fill="none" stroke="none"/><text fill="#000000" stroke="none" font-family="Arial" font-size="13px" font-style="normal" font-weight="normal" text-decoration="none" x="366.5" y="372.5">+id_option</text></g></g><g transform="translate(-190,-302) scale(1,1)"><g><path fill="none" stroke="none"/><text fill="#000000" stroke="none" font-family="Arial" font-size="13px" font-style="normal" font-weight="normal" text-decoration="none" x="411.5" y="400.5">1</text></g></g><g transform="translate(-190,-302) scale(1,1)"><path fill="none" stroke="#000000" d="M 256 544 L 256 432" stroke-miterlimit="10"/></g><g transform="translate(-190,-302) scale(1,1)"><g><path fill="none" stroke="none"/><text fill="#000000" stroke="none" font-family="Arial" font-size="13px" font-style="normal" font-weight="normal" text-decoration="none" x="207.5" y="529.5">+id_test</text></g></g><g transform="translate(-190,-302) scale(1,1)"><g><path fill="none" stroke="none"/><text fill="#000000" stroke="none" font-family="Arial" font-size="13px" font-style="normal" font-weight="normal" text-decoration="none" x="264.5" y="526.5">1</text></g></g><g transform="translate(-190,-302) scale(1,1)"><g><path fill="none" stroke="none"/><text fill="#000000" stroke="none" font-family="Arial" font-size="13px" font-style="normal" font-weight="normal" text-decoration="none" x="265.5" y="457.5">*</text></g></g><g transform="translate(-190,-302) scale(1,1)"><path fill="none" stroke="#000000" d="M 480 512 L 480 436" stroke-miterlimit="10"/></g><g transform="translate(-190,-302) scale(1,1)"><g><path fill="none" stroke="none"/><text fill="#000000" stroke="none" font-family="Arial" font-size="13px" font-style="normal" font-weight="normal" text-decoration="none" x="485.5" y="505.5">+reference</text></g></g><g transform="translate(-190,-302) scale(1,1)"><g><path fill="none" stroke="none"/><text fill="#000000" stroke="none" font-family="Arial" font-size="13px" font-style="normal" font-weight="normal" text-decoration="none" x="488.5" y="494.5">1</text></g></g><g transform="translate(-190,-302) scale(1,1)"><g><path fill="none" stroke="none"/><text fill="#000000" stroke="none" font-family="Arial" font-size="13px" font-style="normal" font-weight="normal" text-decoration="none" x="489.5" y="461.5">*</text></g></g></g></svg>